<svg width="159" height="47" viewBox="0 0 159 47" fill="none" xmlns="http://www.w3.org/2000/svg">
<rect width="158.266" height="46.2286" rx="4.81548" fill="white"/>
<rect x="0.577858" y="0.577858" width="157.11" height="45.0729" rx="4.23762" stroke="black" stroke-opacity="0.5" stroke-width="1.15572"/>
<path d="M24.4323 22.4227L11.6746 35.9629C11.6758 35.9653 11.6758 35.9689 11.677 35.9713C12.0688 37.4415 13.4108 38.5236 15.0045 38.5236C15.6419 38.5236 16.2399 38.351 16.7527 38.0491L16.7935 38.0251L31.1532 29.7392L24.4323 22.4227Z" fill="#EA4335"/>
<path d="M37.3387 20.1171L37.3267 20.1087L31.127 16.5152L24.1425 22.7305L31.1522 29.7378L37.3183 26.1802C38.3991 25.5955 39.1337 24.4559 39.1337 23.1427C39.1337 21.8366 38.4099 20.703 37.3387 20.1171Z" fill="#FBBC04"/>
<path d="M11.6746 10.2645C11.5979 10.5473 11.5571 10.8444 11.5571 11.1512V35.0778C11.5571 35.3845 11.5979 35.6817 11.6758 35.9633L24.8708 22.7694L11.6746 10.2645Z" fill="#4285F4"/>
<path d="M24.5269 23.1144L31.1292 16.5132L16.7863 8.19743C16.265 7.88469 15.6563 7.70495 15.0057 7.70495C13.412 7.70495 12.0676 8.78936 11.6758 10.2608C11.6758 10.262 11.6746 10.2632 11.6746 10.2644L24.5269 23.1144Z" fill="#34A853"/>
<path d="M57.9135 11.5305C57.9135 12.4796 57.6326 13.235 57.0697 13.7991C56.4297 14.4696 55.5973 14.8048 54.5734 14.8048C53.5914 14.8048 52.7578 14.465 52.0726 13.7843C51.3851 13.1048 51.0431 12.261 51.0431 11.2552C51.0431 10.2483 51.3851 9.40569 52.0726 8.72499C52.7578 8.04543 53.5914 7.70452 54.5734 7.70452C55.0593 7.70452 55.5259 7.79966 55.9676 7.98993C56.4105 8.18021 56.765 8.43278 57.0312 8.74878L56.4331 9.34679C55.9835 8.80994 55.364 8.54038 54.5734 8.54038C53.8576 8.54038 53.2392 8.79182 52.7171 9.29469C52.1949 9.7987 51.9344 10.4511 51.9344 11.2552C51.9344 12.0582 52.1949 12.7118 52.7171 13.2146C53.2392 13.7186 53.8576 13.9689 54.5734 13.9689C55.3323 13.9689 55.9642 13.7164 56.4717 13.2101C56.8001 12.8805 56.9892 12.4229 57.0402 11.834H54.5734V11.0174H57.8659C57.8976 11.1952 57.9135 11.3662 57.9135 11.5305Z" fill="black"/>
<path d="M57.9135 11.5305C57.9135 12.4796 57.6326 13.235 57.0697 13.7991C56.4297 14.4696 55.5973 14.8048 54.5734 14.8048C53.5914 14.8048 52.7578 14.465 52.0726 13.7843C51.3851 13.1048 51.0431 12.261 51.0431 11.2552C51.0431 10.2483 51.3851 9.40569 52.0726 8.72499C52.7578 8.04543 53.5914 7.70452 54.5734 7.70452C55.0593 7.70452 55.5259 7.79966 55.9676 7.98993C56.4105 8.18021 56.765 8.43278 57.0312 8.74878L56.4331 9.34679C55.9835 8.80994 55.364 8.54038 54.5734 8.54038C53.8576 8.54038 53.2392 8.79182 52.7171 9.29469C52.1949 9.7987 51.9344 10.4511 51.9344 11.2552C51.9344 12.0582 52.1949 12.7118 52.7171 13.2146C53.2392 13.7186 53.8576 13.9689 54.5734 13.9689C55.3323 13.9689 55.9642 13.7164 56.4717 13.2101C56.8001 12.8805 56.9892 12.4229 57.0402 11.834H54.5734V11.0174H57.8659C57.8976 11.1952 57.9135 11.3662 57.9135 11.5305Z" fill="black"/>
<path d="M63.1345 8.69206H60.0402V10.8463H62.831V11.6629H60.0402V13.8171H63.1345V14.653H59.167V7.85733H63.1345V8.69206Z" fill="black"/>
<path d="M63.1345 8.69206H60.0402V10.8463H62.831V11.6629H60.0402V13.8171H63.1345V14.653H59.167V7.85733H63.1345V8.69206Z" fill="black"/>
<path d="M66.8164 14.653H65.9432V8.69206H64.0449V7.85733H68.7146V8.69206H66.8164V14.653Z" fill="black"/>
<path d="M66.8164 14.653H65.9432V8.69206H64.0449V7.85733H68.7146V8.69206H66.8164V14.653Z" fill="black"/>
<path d="M72.0931 7.85733H72.9664V14.653H72.0931V7.85733Z" fill="black"/>
<path d="M76.8397 14.653H75.9665V8.69206H74.0682V7.85733H78.738V8.69206H76.8397V14.653Z" fill="black"/>
<path d="M76.8397 14.653H75.9665V8.69206H74.0682V7.85733H78.738V8.69206H76.8397V14.653Z" fill="black"/>
<path d="M83.2395 13.2056C83.7424 13.7152 84.3574 13.9689 85.0857 13.9689C85.8139 13.9689 86.4289 13.7152 86.9318 13.2056C87.4347 12.6959 87.6873 12.0458 87.6873 11.2552C87.6873 10.4647 87.4347 9.81343 86.9318 9.30489C86.4289 8.79521 85.8139 8.54038 85.0857 8.54038C84.3574 8.54038 83.7424 8.79521 83.2395 9.30489C82.7378 9.81343 82.4852 10.4647 82.4852 11.2552C82.4852 12.0458 82.7378 12.6959 83.2395 13.2056ZM87.5774 13.7741C86.9092 14.4616 86.079 14.8048 85.0857 14.8048C84.0924 14.8048 83.2622 14.4616 82.5951 13.7741C81.9269 13.0878 81.5939 12.2485 81.5939 11.2552C81.5939 10.2619 81.9269 9.42154 82.5951 8.73519C83.2622 8.04883 84.0924 7.70452 85.0857 7.70452C86.0733 7.70452 86.9012 8.04996 87.5729 8.73972C88.2434 9.42947 88.5786 10.2676 88.5786 11.2552C88.5786 12.2485 88.2445 13.0878 87.5774 13.7741Z" fill="black"/>
<path d="M83.2395 13.2056C83.7424 13.7152 84.3574 13.9689 85.0857 13.9689C85.8139 13.9689 86.4289 13.7152 86.9318 13.2056C87.4347 12.6959 87.6873 12.0458 87.6873 11.2552C87.6873 10.4647 87.4347 9.81343 86.9318 9.30489C86.4289 8.79521 85.8139 8.54038 85.0857 8.54038C84.3574 8.54038 83.7424 8.79521 83.2395 9.30489C82.7378 9.81343 82.4852 10.4647 82.4852 11.2552C82.4852 12.0458 82.7378 12.6959 83.2395 13.2056ZM87.5774 13.7741C86.9092 14.4616 86.079 14.8048 85.0857 14.8048C84.0924 14.8048 83.2622 14.4616 82.5951 13.7741C81.9269 13.0878 81.5939 12.2485 81.5939 11.2552C81.5939 10.2619 81.9269 9.42154 82.5951 8.73519C83.2622 8.04883 84.0924 7.70452 85.0857 7.70452C86.0733 7.70452 86.9012 8.04996 87.5729 8.73972C88.2434 9.42947 88.5786 10.2676 88.5786 11.2552C88.5786 12.2485 88.2445 13.0878 87.5774 13.7741Z" fill="black"/>
<path d="M89.8036 14.653V7.85733H90.866L94.1686 13.1432H94.2071L94.1686 11.8339V7.85733H95.043V14.653H94.1313L90.6757 9.10999H90.6383L90.6757 10.4204V14.653H89.8036Z" fill="black"/>
<path d="M89.8036 14.653V7.85733H90.866L94.1686 13.1432H94.2071L94.1686 11.8339V7.85733H95.043V14.653H94.1313L90.6757 9.10999H90.6383L90.6757 10.4204V14.653H89.8036Z" fill="black"/>
<path d="M125.322 33.9071H127.436V19.7484H125.322V33.9071ZM144.358 24.8485L141.935 30.9872H141.863L139.348 24.8485H137.072L140.842 33.428L138.694 38.2008H140.897L146.708 24.8485H144.358ZM132.373 32.2988C131.679 32.2988 130.715 31.9533 130.715 31.0959C130.715 30.0041 131.916 29.5851 132.955 29.5851C133.884 29.5851 134.322 29.7855 134.886 30.0585C134.722 31.37 133.592 32.2988 132.373 32.2988ZM132.627 24.5393C131.097 24.5393 129.512 25.2132 128.857 26.7071L130.733 27.4897C131.134 26.7071 131.88 26.4511 132.664 26.4511C133.757 26.4511 134.868 27.1069 134.886 28.2735V28.4185C134.503 28.1999 133.684 27.8726 132.682 27.8726C130.66 27.8726 128.601 28.9836 128.601 31.0597C128.601 32.9545 130.259 34.1755 132.117 34.1755C133.538 34.1755 134.322 33.5378 134.813 32.7903H134.886V33.8833H136.926V28.4547C136.926 25.9415 135.05 24.5393 132.627 24.5393ZM119.566 26.5723H116.56V21.7191H119.566C121.146 21.7191 122.043 23.0273 122.043 24.1452C122.043 25.2426 121.146 26.5723 119.566 26.5723ZM119.512 19.7484H114.448V33.9071H116.56V28.5431H119.512C121.854 28.5431 124.157 26.8464 124.157 24.1452C124.157 21.4439 121.854 19.7484 119.512 19.7484ZM91.898 32.301C90.4381 32.301 89.216 31.079 89.216 29.4004C89.216 27.7038 90.4381 26.4625 91.898 26.4625C93.3398 26.4625 94.4701 27.7038 94.4701 29.4004C94.4701 31.079 93.3398 32.301 91.898 32.301ZM94.3252 25.6413H94.2515C93.777 25.0762 92.8652 24.5654 91.7156 24.5654C89.3066 24.5654 87.0992 26.6811 87.0992 29.4004C87.0992 32.1006 89.3066 34.1993 91.7156 34.1993C92.8652 34.1993 93.777 33.6885 94.2515 33.1041H94.3252V33.7983C94.3252 35.6411 93.3398 36.6264 91.7519 36.6264C90.4562 36.6264 89.6532 35.6954 89.3247 34.9106L87.482 35.6773C88.0109 36.9549 89.4165 38.5236 91.7519 38.5236C94.2334 38.5236 96.3321 37.0636 96.3321 33.5061V24.8564H94.3252V25.6413ZM97.7921 33.9071H99.9089V19.7473H97.7921V33.9071ZM103.028 29.2362C102.974 27.3753 104.47 26.4262 105.546 26.4262C106.386 26.4262 107.098 26.8453 107.334 27.4478L103.028 29.2362ZM109.597 27.6302C109.196 26.5542 107.973 24.5654 105.473 24.5654C102.992 24.5654 100.93 26.5168 100.93 29.3823C100.93 32.0824 102.974 34.1993 105.71 34.1993C107.919 34.1993 109.196 32.8492 109.725 32.0643L108.083 30.9691C107.536 31.7721 106.787 32.301 105.71 32.301C104.634 32.301 103.867 31.8084 103.375 30.8422L109.816 28.1772L109.597 27.6302ZM58.2812 26.0434V28.0866H63.1707C63.0246 29.2362 62.6418 30.0755 62.0585 30.6588C61.3461 31.3712 60.2327 32.1561 58.2812 32.1561C55.2697 32.1561 52.9161 29.7289 52.9161 26.7184C52.9161 23.7068 55.2697 21.2808 58.2812 21.2808C59.9054 21.2808 61.0912 21.9196 61.9667 22.7407L63.4085 21.2989C62.1853 20.1312 60.5623 19.2365 58.2812 19.2365C54.1574 19.2365 50.6906 22.5946 50.6906 26.7184C50.6906 30.8422 54.1574 34.1993 58.2812 34.1993C60.5068 34.1993 62.1853 33.4688 63.4991 32.1006C64.8503 30.7505 65.2694 28.8534 65.2694 27.3198C65.2694 26.8453 65.2332 26.4081 65.1595 26.0434H58.2812ZM70.8293 32.301C69.3694 32.301 68.11 31.0971 68.11 29.3823C68.11 27.6483 69.3694 26.4625 70.8293 26.4625C72.2881 26.4625 73.5476 27.6483 73.5476 29.3823C73.5476 31.0971 72.2881 32.301 70.8293 32.301ZM70.8293 24.5654C68.1643 24.5654 65.9931 26.5904 65.9931 29.3823C65.9931 32.1561 68.1643 34.1993 70.8293 34.1993C73.4932 34.1993 75.6644 32.1561 75.6644 29.3823C75.6644 26.5904 73.4932 24.5654 70.8293 24.5654ZM81.3773 32.301C79.9173 32.301 78.6579 31.0971 78.6579 29.3823C78.6579 27.6483 79.9173 26.4625 81.3773 26.4625C82.8372 26.4625 84.0955 27.6483 84.0955 29.3823C84.0955 31.0971 82.8372 32.301 81.3773 32.301ZM81.3773 24.5654C78.7134 24.5654 76.5422 26.5904 76.5422 29.3823C76.5422 32.1561 78.7134 34.1993 81.3773 34.1993C84.0411 34.1993 86.2123 32.1561 86.2123 29.3823C86.2123 26.5904 84.0411 24.5654 81.3773 24.5654Z" fill="black"/>
</svg>
