<svg width="151" height="47" viewBox="0 0 151 47" fill="none" xmlns="http://www.w3.org/2000/svg">
<rect x="0.75708" width="150.243" height="46.2286" rx="4.81548" fill="white"/>
<rect x="1.33494" y="0.577858" width="149.087" height="45.0729" rx="4.23763" stroke="black" stroke-opacity="0.5" stroke-width="1.15572"/>
<path d="M31.259 24.0943C31.2742 22.9131 31.588 21.7548 32.1711 20.7274C32.7543 19.7 33.5878 18.8367 34.5942 18.218C33.9549 17.3049 33.1114 16.5535 32.1309 16.0234C31.1503 15.4933 30.0597 15.1992 28.9456 15.1643C26.569 14.9148 24.265 16.5864 23.0539 16.5864C21.8194 16.5864 19.9548 15.1891 17.9469 15.2304C16.6481 15.2723 15.3824 15.65 14.2729 16.3266C13.1635 17.0032 12.2483 17.9556 11.6164 19.0911C8.87928 23.83 10.9209 30.7947 13.5429 34.6253C14.8547 36.501 16.3879 38.5963 18.394 38.522C20.3571 38.4406 21.0902 37.2702 23.4598 37.2702C25.8074 37.2702 26.4953 38.522 28.5421 38.4747C30.6486 38.4405 31.9758 36.5907 33.2416 34.6972C34.1841 33.3606 34.9094 31.8835 35.3905 30.3204C34.1667 29.8028 33.1224 28.9364 32.3877 27.8292C31.653 26.722 31.2604 25.4231 31.259 24.0943Z" fill="black"/>
<path d="M27.393 12.6449C28.5415 11.2661 29.1074 9.49395 28.9704 7.70471C27.2157 7.88901 25.5948 8.72765 24.4307 10.0535C23.8616 10.7012 23.4257 11.4548 23.148 12.2711C22.8702 13.0874 22.7561 13.9504 22.8121 14.8108C23.6897 14.8199 24.558 14.6296 25.3515 14.2545C26.145 13.8793 26.843 13.329 27.393 12.6449Z" fill="black"/>
<path d="M56.8613 30.7104H50.9025L49.4715 34.8392H46.9476L52.5917 19.5638H55.214L60.8581 34.8392H58.2911L56.8613 30.7104ZM51.5197 28.8052H56.243L53.9146 22.1045H53.8494L51.5197 28.8052Z" fill="black"/>
<path d="M73.0479 29.2716C73.0479 32.7325 71.1522 34.956 68.2914 34.956C67.5667 34.9931 66.846 34.8299 66.2118 34.4854C65.5776 34.1408 65.0555 33.6286 64.7053 33.0076H64.6512V38.5238H62.3116V23.7026H64.5762V25.5549H64.6192C64.9855 24.9368 65.5164 24.4273 66.1555 24.0806C66.7945 23.7339 67.5178 23.563 68.2484 23.586C71.141 23.586 73.0479 25.8204 73.0479 29.2716ZM70.6432 29.2716C70.6432 27.0169 69.4507 25.5345 67.6312 25.5345C65.8437 25.5345 64.6413 27.0481 64.6413 29.2716C64.6413 31.5156 65.8437 33.0184 67.6312 33.0184C69.4507 33.0184 70.6432 31.5468 70.6432 29.2716Z" fill="black"/>
<path d="M85.5914 29.2716C85.5914 32.7325 83.6957 34.956 80.835 34.956C80.1103 34.9931 79.3896 34.8299 78.7554 34.4853C78.1211 34.1407 77.599 33.6286 77.2489 33.0075H77.1947V38.5238H74.8552V23.7026H77.1197V25.5549H77.1628C77.529 24.9368 78.0599 24.4273 78.699 24.0806C79.3381 23.7339 80.0613 23.563 80.7919 23.586C83.6847 23.586 85.5914 25.8204 85.5914 29.2716ZM83.1868 29.2716C83.1868 27.0169 81.9943 25.5345 80.1748 25.5345C78.3873 25.5345 77.1849 27.0481 77.1849 29.2716C77.1849 31.5156 78.3873 33.0184 80.1748 33.0184C81.9943 33.0184 83.1868 31.5468 83.1868 29.2716H83.1868Z" fill="black"/>
<path d="M93.8827 30.5833C94.056 32.0981 95.562 33.0927 97.62 33.0927C99.5919 33.0927 101.011 32.098 101.011 30.7322C101.011 29.5465 100.155 28.8366 98.1289 28.3501L96.1029 27.8732C93.2323 27.1956 91.8997 25.8839 91.8997 23.7552C91.8997 21.1196 94.2503 19.3093 97.588 19.3093C100.891 19.3093 103.156 21.1196 103.232 23.7552H100.87C100.729 22.2308 99.4394 21.3106 97.5548 21.3106C95.6702 21.3106 94.3805 22.2416 94.3805 23.5967C94.3805 24.6766 95.2042 25.3121 97.2192 25.7985L98.9415 26.2118C102.149 26.9529 103.482 28.2119 103.482 30.4462C103.482 33.304 101.152 35.0939 97.4466 35.0939C93.9797 35.0939 91.639 33.3461 91.4878 30.5832L93.8827 30.5833Z" fill="black"/>
<path d="M108.531 21.0667V23.7022H110.699V25.5125H108.531V31.6522C108.531 32.606 108.965 33.0505 109.918 33.0505C110.175 33.0461 110.432 33.0284 110.688 32.9976V34.7971C110.259 34.8753 109.824 34.9107 109.388 34.9028C107.081 34.9028 106.181 34.0559 106.181 31.896V25.5125H104.523V23.7022H106.181V21.0667H108.531Z" fill="black"/>
<path d="M111.953 29.2714C111.953 25.7674 114.065 23.5654 117.359 23.5654C120.663 23.5654 122.766 25.7673 122.766 29.2714C122.766 32.7851 120.674 34.9774 117.359 34.9774C114.044 34.9774 111.953 32.7851 111.953 29.2714ZM120.382 29.2714C120.382 26.8677 119.254 25.449 117.359 25.449C115.463 25.449 114.337 26.8785 114.337 29.2714C114.337 31.6848 115.463 33.0927 117.359 33.0927C119.254 33.0927 120.382 31.6848 120.382 29.2714H120.382Z" fill="black"/>
<path d="M124.694 23.7025H126.926V25.598H126.98C127.131 25.006 127.486 24.4828 127.985 24.1164C128.484 23.75 129.097 23.5626 129.721 23.5859C129.991 23.585 130.26 23.6136 130.523 23.6712V25.8095C130.182 25.7078 129.827 25.6612 129.472 25.6713C129.132 25.6579 128.793 25.7164 128.478 25.843C128.164 25.9695 127.881 26.1611 127.649 26.4045C127.418 26.6479 127.243 26.9375 127.137 27.2532C127.03 27.5689 126.995 27.9034 127.034 28.2336V34.8394H124.694L124.694 23.7025Z" fill="black"/>
<path d="M141.309 31.5683C140.995 33.59 138.98 34.9774 136.402 34.9774C133.086 34.9774 131.028 32.8068 131.028 29.3243C131.028 25.831 133.097 23.5654 136.303 23.5654C139.457 23.5654 141.44 25.6821 141.44 29.0588V29.842H133.39V29.9802C133.353 30.3901 133.405 30.803 133.544 31.1915C133.682 31.58 133.904 31.9352 134.194 32.2336C134.484 32.5319 134.836 32.7666 135.226 32.9219C135.616 33.0773 136.035 33.1498 136.456 33.1347C137.009 33.1853 137.563 33.0602 138.038 32.778C138.512 32.4957 138.88 32.0715 139.088 31.5682L141.309 31.5683ZM133.401 28.2444H139.099C139.12 27.8758 139.063 27.507 138.931 27.1611C138.799 26.8152 138.596 26.4996 138.333 26.2342C138.071 25.9688 137.755 25.7593 137.406 25.6188C137.056 25.4783 136.681 25.4099 136.303 25.4178C135.922 25.4156 135.545 25.4871 135.192 25.6282C134.84 25.7694 134.519 25.9773 134.249 26.2401C133.979 26.5029 133.766 26.8153 133.62 27.1593C133.474 27.5033 133.4 27.8721 133.401 28.2444V28.2444Z" fill="black"/>
<path d="M51.2261 8.06631C51.7165 8.03192 52.2087 8.10432 52.6671 8.2783C53.1255 8.45228 53.5386 8.72349 53.8767 9.07237C54.2148 9.42126 54.4695 9.83912 54.6223 10.2958C54.7752 10.7525 54.8224 11.2367 54.7605 11.7133C54.7605 14.0582 53.4635 15.4061 51.2261 15.4061H48.5128V8.06631H51.2261ZM49.6795 14.3681H51.0957C51.4462 14.3886 51.797 14.3324 52.1224 14.2037C52.4479 14.075 52.7399 13.8771 52.9772 13.6242C53.2145 13.3713 53.3911 13.0699 53.4941 12.742C53.5972 12.414 53.6241 12.0677 53.5729 11.7283C53.6204 11.3902 53.5908 11.0461 53.4861 10.7205C53.3815 10.395 53.2044 10.096 52.9677 9.84519C52.7309 9.59434 52.4403 9.39776 52.1167 9.26954C51.7931 9.14132 51.4444 9.08463 51.0957 9.10354H49.6795V14.3681Z" fill="black"/>
<path d="M56.0783 12.634C56.0427 12.27 56.0853 11.9027 56.2034 11.5557C56.3216 11.2088 56.5126 10.8897 56.7643 10.6191C57.016 10.3485 57.3228 10.1323 57.6651 9.98439C58.0073 9.83644 58.3774 9.76001 58.7516 9.76001C59.1258 9.76001 59.4959 9.83644 59.8382 9.98439C60.1804 10.1323 60.4872 10.3485 60.7389 10.6191C60.9906 10.8897 61.1816 11.2088 61.2998 11.5557C61.4179 11.9027 61.4605 12.27 61.4249 12.634C61.4612 12.9984 61.4191 13.3661 61.3013 13.7137C61.1835 14.0612 60.9925 14.3808 60.7408 14.6519C60.489 14.9231 60.182 15.1397 59.8394 15.288C59.4968 15.4363 59.1263 15.5129 58.7516 15.5129C58.3769 15.5129 58.0064 15.4363 57.6638 15.288C57.3213 15.1397 57.0142 14.9231 56.7625 14.6519C56.5107 14.3808 56.3198 14.0612 56.2019 13.7137C56.0841 13.3661 56.042 12.9984 56.0783 12.634ZM60.2742 12.634C60.2742 11.4333 59.7222 10.7312 58.7534 10.7312C57.781 10.7312 57.234 11.4333 57.234 12.634C57.234 13.8443 57.781 14.541 58.7534 14.541C59.7222 14.541 60.2742 13.8394 60.2742 12.634H60.2742Z" fill="black"/>
<path d="M68.5318 15.4062H67.3712L66.1996 11.3267H66.1111L64.9444 15.4062H63.795L62.2324 9.86719H63.3671L64.3826 14.0938H64.4662L65.6317 9.86719H66.7049L67.8704 14.0938H67.9589L68.9694 9.86719H70.0882L68.5318 15.4062Z" fill="black"/>
<path d="M71.4026 9.86677H72.4795V10.7467H72.5631C72.7049 10.4307 72.9441 10.1657 73.2474 9.98883C73.5506 9.81194 73.9028 9.73189 74.2548 9.75985C74.5306 9.73958 74.8075 9.78022 75.0651 9.87875C75.3227 9.97727 75.5542 10.1312 75.7427 10.329C75.9311 10.5269 76.0716 10.7636 76.1536 11.0217C76.2357 11.2798 76.2573 11.5526 76.2168 11.82V15.4057H75.0981V12.0945C75.0981 11.2044 74.7023 10.7617 73.8749 10.7617C73.6876 10.7532 73.5007 10.7843 73.3269 10.853C73.1531 10.9217 72.9965 11.0263 72.868 11.1596C72.7394 11.2929 72.6419 11.4518 72.582 11.6254C72.5222 11.799 72.5015 11.9832 72.5213 12.1654V15.4058H71.4026L71.4026 9.86677Z" fill="black"/>
<path d="M77.9994 7.70483H79.1181V15.4061H77.9994V7.70483Z" fill="black"/>
<path d="M80.6734 12.6341C80.6378 12.27 80.6804 11.9028 80.7986 11.5558C80.9167 11.2088 81.1078 10.8898 81.3595 10.6192C81.6113 10.3486 81.9181 10.1323 82.2604 9.98439C82.6026 9.83644 82.9727 9.76001 83.347 9.76001C83.7212 9.76001 84.0913 9.83644 84.4336 9.98439C84.7759 10.1323 85.0827 10.3486 85.3344 10.6192C85.5861 10.8898 85.7772 11.2088 85.8954 11.5558C86.0135 11.9028 86.0562 12.27 86.0206 12.6341C86.0568 12.9985 86.0147 13.3663 85.8968 13.7138C85.779 14.0613 85.588 14.3809 85.3362 14.652C85.0844 14.9232 84.7774 15.1398 84.4348 15.2881C84.0922 15.4363 83.7217 15.5129 83.347 15.5129C82.9723 15.5129 82.6018 15.4363 82.2592 15.2881C81.9166 15.1398 81.6095 14.9232 81.3577 14.652C81.1059 14.3809 80.915 14.0613 80.7971 13.7138C80.6793 13.3663 80.6371 12.9985 80.6734 12.6341ZM84.8692 12.6341C84.8692 11.4334 84.3172 10.7313 83.3485 10.7313C82.3761 10.7313 81.829 11.4334 81.829 12.6341C81.829 13.8444 82.3761 14.5411 83.3485 14.5411C84.3173 14.5411 84.8693 13.8396 84.8693 12.6341H84.8692Z" fill="black"/>
<path d="M87.1989 13.8395C87.1989 12.8424 87.9586 12.2676 89.3072 12.186L90.8427 12.0995V11.6214C90.8427 11.0363 90.4469 10.706 89.6822 10.706C89.0577 10.706 88.6249 10.93 88.5008 11.3217H87.4177C87.532 10.3702 88.4479 9.76001 89.7338 9.76001C91.155 9.76001 91.9566 10.4513 91.9566 11.6214V15.406H90.8796V14.6275H90.7911C90.6114 14.9068 90.3592 15.1344 90.06 15.2872C89.7609 15.44 89.4256 15.5124 89.0884 15.4972C88.8504 15.5214 88.6099 15.4966 88.3824 15.4244C88.1548 15.3522 87.9453 15.2342 87.7672 15.078C87.5892 14.9218 87.4466 14.7309 87.3488 14.5176C87.2509 14.3043 87.1998 14.0733 87.1989 13.8395ZM90.8427 13.3662V12.9031L89.4585 12.9896C88.6778 13.0407 88.3237 13.3001 88.3237 13.7884C88.3237 14.287 88.7663 14.5771 89.3749 14.5771C89.5532 14.5947 89.7333 14.5771 89.9045 14.5253C90.0758 14.4736 90.2346 14.3887 90.3715 14.2757C90.5085 14.1627 90.6208 14.024 90.7017 13.8677C90.7827 13.7115 90.8306 13.5409 90.8427 13.3662Z" fill="black"/>
<path d="M93.4255 12.6342C93.4255 10.884 94.3463 9.77523 95.7786 9.77523C96.1328 9.75928 96.4844 9.84219 96.7923 10.0143C97.1001 10.1864 97.3514 10.4405 97.5169 10.747H97.6005V7.70483H98.7192V15.4061H97.6472V14.531H97.5587C97.3805 14.8355 97.1204 15.0864 96.8066 15.2568C96.4928 15.4271 96.1373 15.5103 95.7786 15.4974C94.3365 15.4975 93.4255 14.3887 93.4255 12.6342ZM94.5812 12.6342C94.5812 13.8091 95.1479 14.516 96.0958 14.516C97.0387 14.516 97.6214 13.7989 97.6214 12.6391C97.6214 11.4846 97.0326 10.7573 96.0958 10.7573C95.1541 10.7573 94.5812 11.469 94.5812 12.6342H94.5812Z" fill="black"/>
<path d="M103.349 12.634C103.313 12.27 103.356 11.9027 103.474 11.5557C103.592 11.2088 103.783 10.8897 104.035 10.6191C104.286 10.3485 104.593 10.1323 104.935 9.98439C105.278 9.83644 105.648 9.76001 106.022 9.76001C106.396 9.76001 106.766 9.83644 107.108 9.98439C107.451 10.1323 107.757 10.3485 108.009 10.6191C108.261 10.8897 108.452 11.2088 108.57 11.5557C108.688 11.9027 108.731 12.27 108.695 12.634C108.731 12.9984 108.689 13.3661 108.572 13.7137C108.454 14.0612 108.263 14.3808 108.011 14.6519C107.759 14.9231 107.452 15.1397 107.11 15.288C106.767 15.4363 106.397 15.5129 106.022 15.5129C105.647 15.5129 105.277 15.4363 104.934 15.288C104.592 15.1397 104.284 14.9231 104.033 14.6519C103.781 14.3808 103.59 14.0612 103.472 13.7137C103.354 13.3661 103.312 12.9984 103.349 12.634ZM107.544 12.634C107.544 11.4333 106.992 10.7312 106.024 10.7312C105.051 10.7312 104.504 11.4333 104.504 12.634C104.504 13.8443 105.051 14.541 106.024 14.541C106.992 14.541 107.544 13.8394 107.544 12.634Z" fill="black"/>
<path d="M110.196 9.86677H111.273V10.7467H111.356C111.498 10.4307 111.737 10.1657 112.041 9.98883C112.344 9.81194 112.696 9.73189 113.048 9.75985C113.324 9.73958 113.601 9.78022 113.858 9.87875C114.116 9.97727 114.347 10.1312 114.536 10.329C114.724 10.5269 114.865 10.7636 114.947 11.0217C115.029 11.2798 115.051 11.5526 115.01 11.82V15.4057H113.891V12.0945C113.891 11.2044 113.495 10.7617 112.668 10.7617C112.481 10.7532 112.294 10.7843 112.12 10.853C111.946 10.9217 111.79 11.0263 111.661 11.1596C111.533 11.2929 111.435 11.4518 111.375 11.6254C111.315 11.799 111.295 11.9832 111.315 12.1654V15.4058H110.196V9.86677Z" fill="black"/>
<path d="M121.332 8.48804V9.89231H122.56V10.8131H121.332V13.6613C121.332 14.2415 121.576 14.4956 122.133 14.4956C122.276 14.4951 122.418 14.4867 122.56 14.4703V15.3809C122.359 15.416 122.155 15.4347 121.951 15.4367C120.707 15.4367 120.212 15.0091 120.212 13.9412V10.813H119.312V9.89226H120.212V8.48804H121.332Z" fill="black"/>
<path d="M124.088 7.70483H125.197V10.7573H125.285C125.434 10.4383 125.68 10.1718 125.989 9.99428C126.299 9.81672 126.656 9.73666 127.014 9.76501C127.288 9.75042 127.563 9.79518 127.817 9.8961C128.072 9.99702 128.301 10.1516 128.487 10.3488C128.673 10.5461 128.813 10.7811 128.896 11.0371C128.979 11.2931 129.003 11.5639 128.966 11.83V15.4062H127.846V12.0997C127.846 11.2149 127.425 10.7669 126.634 10.7669C126.442 10.7514 126.248 10.7773 126.067 10.8425C125.886 10.9078 125.722 11.0109 125.586 11.1447C125.45 11.2784 125.346 11.4396 125.28 11.6169C125.215 11.7942 125.19 11.9834 125.207 12.1711V15.4061H124.088L124.088 7.70483Z" fill="black"/>
<path d="M135.489 13.9105C135.337 14.4167 135.008 14.8546 134.559 15.1475C134.11 15.4405 133.57 15.5698 133.033 15.513C132.66 15.5226 132.289 15.4527 131.945 15.3081C131.602 15.1635 131.296 14.9478 131.047 14.6757C130.797 14.4037 130.612 14.082 130.503 13.7329C130.394 13.3837 130.363 13.0156 130.415 12.654C130.365 12.2912 130.395 11.9223 130.504 11.5721C130.613 11.2219 130.798 10.8987 131.046 10.6243C131.293 10.3499 131.599 10.1307 131.941 9.98162C132.283 9.83253 132.654 9.75698 133.028 9.7601C134.606 9.7601 135.557 10.8131 135.557 12.5524V12.9339H131.554V12.9951C131.537 13.1984 131.563 13.403 131.631 13.5958C131.699 13.7886 131.808 13.9654 131.95 14.1148C132.092 14.2642 132.265 14.3829 132.456 14.4634C132.648 14.5438 132.855 14.5842 133.064 14.5819C133.331 14.6133 133.603 14.5662 133.843 14.4467C134.083 14.3271 134.281 14.1404 134.412 13.9104L135.489 13.9105ZM131.554 12.1254H134.417C134.431 11.9395 134.406 11.7528 134.341 11.5772C134.277 11.4016 134.176 11.2411 134.045 11.106C133.913 10.9709 133.755 10.8641 133.578 10.7925C133.402 10.721 133.213 10.6862 133.022 10.6905C132.829 10.6881 132.637 10.7236 132.457 10.7949C132.278 10.8662 132.115 10.9718 131.978 11.1055C131.842 11.2392 131.734 11.3984 131.661 11.5735C131.588 11.7487 131.552 11.9363 131.554 12.1254H131.554Z" fill="black"/>
</svg>
